# xmcd
#
# Track frame offsets:
#	150
#	22040
#	40480
#	55616
#	71841
#	89486
#	103455
#	121312
#	134742
#	148022
#	163329
#	174876
#	190082
#	203127
#	218509
#	230032
#	241601
#	263973
#	279204
#	290034
#	303429
#	318429
#
# Disc length: 4452 seconds
#
# Revision: 1
# Processed by: cddbd v1.5.2PL0 Copyright (c) Steve Scherf et al.
# Submitted via: FairStars CD Ripper 1.21
#
DISCID=53116216
DTITLE=Various Artist - Awesome 7
DYEAR=2002
DGENRE=Country
TTITLE0=Keith Urban - The River
TTITLE1=Gina Jefferys - Angel
TTITLE2=Hermes Houseband - Country Roads
TTITLE3=Olsen Brothers - Marie Marie
TTITLE4=The Deans - Mexican Girl
TTITLE5=Glen Campbell - Country Boy
TTITLE6=Roy Orbison - California Blue
TTITLE7=Mel McDaniel - Baby's Got Her Blue Jeans On
TTITLE8=Tanya Tucker - It Won't Be Me
TTITLE9=Nadine Somers - In Between Dances
TTITLE10=Sandi West - Long on Lovin'
TTITLE11=Eddiy Raven - Zydeco Lady
TTITLE12=Suzy Boguss - Outbound Planes
TTITLE13=Susan Ashton - Closer
TTITLE14=Glen Campbell and Bobby Gentry - All I Have to do is Dream
TTITLE15=Crystal Gayle - Don't it Make My Brown Eyes Blue
TTITLE16=Chris Ledoux - Tougher than the Rest
TTITLE17=Larry Gatlin and the Gatlin Brothers - Billy Jack Willis
TTITLE18=Julie Reeves - Trouble is a Woman
TTITLE19=Jerry Kilgore - I Just Want My Baby Back
TTITLE20=Dean Dillon with Tanya Tucker - Don't You Even Think About Leaving
TTITLE21=George Ducas - I'm Pretending
EXTD=
EXTT0=
EXTT1=
EXTT2=
EXTT3=
EXTT4=
EXTT5=
EXTT6=
EXTT7=
EXTT8=
EXTT9=
EXTT10=
EXTT11=
EXTT12=
EXTT13=
EXTT14=
EXTT15=
EXTT16=
EXTT17=
EXTT18=
EXTT19=
EXTT20=
EXTT21=
PLAYORDER=
